<mxfile host="app.diagrams.net" modified="2023-08-10T07:32:07.566Z" agent="Mozilla/5.0 (Macintosh; Intel Mac OS X 10_15_7) AppleWebKit/605.1.15 (KHTML, like Gecko) Version/16.6 Safari/605.1.15" version="21.6.7" etag="EBL-Fb1tRNk0z1Nt8Vl8" type="github">
  <diagram name="PÃ¡gina-1" id="unQq_iaABApz7pyn5aNZ">
    <mxGraphModel>
      <root>
        <mxCell id="0" />
        <mxCell id="1" parent="0" />
      </root>
    </mxGraphModel>
  </diagram>
</mxfile>
